<?xml version='1.0' encoding='utf-8'?>
<svg xmlns="http://www.w3.org/2000/svg" xmlns:ns1="http://www.inkscape.org/namespaces/inkscape" xmlns:ns2="http://sodipodi.sourceforge.net/DTD/sodipodi-0.dtd" width="70.114578mm" height="70.114578mm" viewBox="0 0 70.114578 70.114578" version="1.1" id="svg1" ns1:version="1.3.2 (091e20e, 2023-11-25, custom)" ns2:docname="ISO_7010_M071.svg">
  <metadata><rdf:RDF xmlns:rdf="http://www.w3.org/1999/02/22-rdf-syntax-ns#" xmlns:dc="http://purl.org/dc/elements/1.1/"><rdf:Work rdf:about=""><dc:rights>This work is licensed under the Creative Commons CC0 1.0 Universal Public Domain Dedication.</dc:rights><dc:creator>Marco Herglotz - safetyforms.de, safetyforms.nl</dc:creator></rdf:Work></rdf:RDF></metadata><ns2:namedview id="namedview1" pagecolor="#505050" bordercolor="#eeeeee" borderopacity="1" ns1:showpageshadow="0" ns1:pageopacity="0" ns1:pagecheckerboard="0" ns1:deskcolor="#505050" ns1:document-units="mm" ns1:zoom="0.72426347" ns1:cx="356.91432" ns1:cy="449.42209" ns1:window-width="1920" ns1:window-height="1009" ns1:window-x="-8" ns1:window-y="-8" ns1:window-maximized="1" ns1:current-layer="layer1" />
  <defs id="defs1" />
  <g ns1:label="Ebene 1" ns1:groupmode="layer" id="layer1" transform="translate(-10.58333,-29.63333)">
    <path d="m 10.58333,64.69062 c 0,-19.36088 15.69482,-35.05729 35.05624,-35.05729 19.36352,0 35.05834,15.69614 35.05834,35.05729 0,19.363 -15.69482,35.05729 -35.05834,35.05729 C 26.27815,99.74818 10.58333,84.05362 10.58333,64.69062" fill="#24578e" id="path1" style="display:inline;stroke-width:0.264583" ns1:label="1" />
    <path id="path12" style="color:#000000;fill:#ffffff;fill-opacity:1;-inkscape-stroke:none;paint-order:stroke fill markers" d="m 59.65087,44.06579 v 5.18008 h 4.06384 v 3.328 H 59.65088 V 82.91406 H 58.4003 V 52.57387 l -1.62522,-8e-5 v 3.92535 h -6.00429 v 1.98799 H 37.9354 V 82.91406 H 25.9413 v 2.4014 H 65.33994 V 44.06579 Z m -20.24114,1.57458 -1.05059,1.81797 4.10415,2.36937 H 28.22436 v 2.09961 h 14.35003 l -4.10776,2.37092 1.05058,1.81849 9.01961,-5.20692 z m 17.36535,1.64641 v 1.95909 h 1.62522 v -1.95909 z m -1.2051,1.03818 c -0.91984,3e-5 -1.76982,0.49071 -2.22984,1.28726 -0.45997,0.79672 -0.45997,1.77831 0,2.57503 0.45989,0.79675 1.30989,1.28764 2.22984,1.28778 v -1.76268 h 7.40266 V 50.08764 H 55.56998 Z M 41.61683,80.43669 h 0.0336 13.03486 0.0331 l 1.57355,2.47737 h -16.2481 z" ns2:nodetypes="cccccccccccccccccccccccccccccccccccccccccccccccccc" ns1:label="1" />
  </g>
</svg>